# xmcd CD database file
#
# Track frame offsets:
#	150
#	13674
#	28215
#	41543
#	54991
#	68554
#	82106
#	95298
#	108650
#	121641
#	133629
#	145480
#	159634
#	173984
#	186188
#	199328
#	211438
#	223439
#	234754
#	245741
#
# Disc length: 3448 seconds
#
# Revision: 0
# Processed by: cddbd v1.5.2PL0 Copyright (c) Steve Scherf et al.
# Submitted via: CDex 1.70beta2
#
DISCID=280d7614
DTITLE=Dizzy Gillespie - Bebop Story The Early Years Vol. 4 1944 CD 004
DYEAR=2008
DGENRE=Jazz
TTITLE0=Woody'n'You
TTITLE1=Bu-Dee-Daht
TTITLE2=Yesterdays
TTITLE3=Disorder At The Border
TTITLE4=Feeling Zero
TTITLE5=Rainbow Mist ( Body And Soul)
TTITLE6=I Got A Date With The Rhythm Man
TTITLE7=I Stay In The Mood For You
TTITLE8=Good Jelly Blues
TTITLE9=If That's The Way You Feel
TTITLE10=I Want To Talk About You
TTITLE11=Blowing The Blues Away
TTITLE12=Blowing The Blues Away
TTITLE13=Opus X
TTITLE14=I'll Wait And Pray
TTITLE15=The Real Thing Happened To Me
TTITLE16=Signing Off
TTITLE17=Interlude
TTITLE18=No Smokes Blues
TTITLE19=East Of The Sun
EXTD=YEAR: 2008
EXTT0=
EXTT1=
EXTT2=
EXTT3=
EXTT4=
EXTT5=
EXTT6=
EXTT7=
EXTT8=
EXTT9=
EXTT10=
EXTT11=
EXTT12=
EXTT13=
EXTT14=
EXTT15=
EXTT16=
EXTT17=
EXTT18=
EXTT19=
PLAYORDER=
